<svg xmlns="http://www.w3.org/2000/svg" fill="currentColor" class="h-full w-full" viewBox="0 0 841.55 224.82"><path class="cls-1" d="M778.06,102.93c-3.04,3.35-7.04,6.23-12.01,8.63-4.97,2.41-10.86,3.61-17.66,3.61-5.96,0-11.38-.97-16.25-2.91-4.87-1.93-9.02-4.66-12.48-8.16-3.45-3.5-6.15-7.66-8.09-12.48-1.94-4.81-2.9-10.1-2.9-15.85,0-5.44.99-10.54,2.98-15.3,1.99-4.76,4.73-8.92,8.24-12.48,3.5-3.55,7.69-6.36,12.55-8.4,4.87-2.04,10.18-3.06,15.93-3.06,6.69,0,12.5,1.1,17.42,3.3,4.92,2.2,9.05,5.13,12.4,8.79l-13.66,14.75c-1.67-1.88-3.72-3.55-6.12-5.02-2.41-1.47-5.6-2.2-9.57-2.2-2.72,0-5.16.55-7.3,1.65-2.15,1.1-3.98,2.54-5.49,4.32-1.52,1.78-2.67,3.84-3.45,6.2-.78,2.35-1.18,4.84-1.18,7.46,0,2.41.39,4.79,1.18,7.14.79,2.35,1.94,4.45,3.45,6.28,1.51,1.83,3.35,3.32,5.49,4.47,2.14,1.15,4.57,1.73,7.3,1.73,3.87,0,7.11-.76,9.73-2.27,2.62-1.52,4.71-3.16,6.28-4.94l13.18,14.75Z"></path><path class="cls-1" d="M383.2,93.02c2.93,1.99,7.27,2.98,13.02,2.98s9.91-1.86,13.11-5.57c3.19-3.71,4.79-8.66,4.79-14.83,0-2.4-.29-4.76-.86-7.06-.58-2.3-1.47-4.31-2.67-6.04-1.2-1.73-2.77-3.11-4.71-4.16-1.94-1.05-4.31-1.57-7.14-1.57-2.51,0-4.74.47-6.67,1.41-1.94.94-3.56,2.2-4.87,3.77-1.31,1.57-2.3,3.35-2.98,5.34-.68,1.99-1.02,4.03-1.02,6.12v19.62ZM360.75,38.88h21.66c.21,1.36.37,2.69.47,4,.1,1.31.21,2.65.32,4,2.4-3.03,5.49-5.36,9.26-6.98,3.77-1.62,7.69-2.43,11.77-2.43,5.33,0,10.04,1.05,14.13,3.14,4.08,2.09,7.48,4.89,10.2,8.4,2.72,3.51,4.76,7.53,6.12,12.09,1.36,4.55,2.04,9.24,2.04,14.05,0,6.8-1.15,12.71-3.45,17.74-2.3,5.02-5.29,9.16-8.95,12.4-3.67,3.25-7.8,5.65-12.4,7.22-4.6,1.57-9.15,2.36-13.65,2.36-3.56,0-6.49-.31-8.79-.94-2.3-.63-4.39-1.26-6.28-1.89v31.86h-22.45V38.88Z"></path><path class="cls-1" d="M647.54,63.3c.68-1.62,1.67-3.11,2.98-4.47,1.31-1.36,2.96-2.49,4.94-3.38,1.99-.89,4.29-1.33,6.91-1.33s4.87.45,6.75,1.33c1.88.89,3.45,2.02,4.71,3.38,1.26,1.36,2.2,2.85,2.82,4.47.63,1.62.94,3.22.94,4.79h-31.08c0-1.57.34-3.16,1.02-4.79M687.83,90.57c-1.69,1.22-4.24,2.64-7.72,4.28-3.66,1.73-8.42,2.59-14.28,2.59s-10.65-1.49-14.05-4.47c-3.4-2.98-5.16-6.46-5.26-10.44h52.42v-3.77c0-6.17-.78-11.85-2.35-17.03-1.57-5.18-3.9-9.63-6.98-13.34-3.09-3.71-6.88-6.62-11.38-8.71-4.5-2.09-9.73-3.14-15.69-3.14s-11.3,1.07-16.01,3.22c-4.71,2.15-8.69,5-11.93,8.55-3.25,3.56-5.73,7.72-7.46,12.48-1.73,4.76-2.59,9.71-2.59,14.83,0,5.86.92,11.22,2.75,16.09,1.83,4.87,4.5,9.02,8,12.48,3.51,3.45,7.77,6.15,12.79,8.08,5.02,1.93,10.67,2.91,16.95,2.91,4.71,0,8.89-.45,12.56-1.33,3.66-.89,6.83-1.91,9.5-3.06,2.67-1.15,4.84-2.33,6.51-3.53.41-.3.8-.58,1.17-.83l-6.94-15.85Z"></path><path class="cls-1" d="M834.75,93.18c-1.41.99-2.91,1.86-4.5,2.61-1.68.78-3.67,1.18-5.96,1.18-3.04,0-5.26-.97-6.67-2.9-1.41-1.93-2.12-4.68-2.12-8.24v-29.04h18.99v-17.74h-18.99v-22.2l-22.6,9.91v12.29h-11.61v17.74h11.61v27.78c0,4.6.47,8.79,1.41,12.55.94,3.77,2.51,6.99,4.71,9.65,2.2,2.67,5.07,4.76,8.63,6.28,3.56,1.51,7.95,2.27,13.18,2.27,7.4,0,14.3-2.22,20.72-6.63l-6.8-15.52Z"></path><path class="cls-1" d="M498.68,39.04c-1.36-.52-2.73-.88-4.14-1.09-1.41-.21-3.11-.31-5.1-.31-5.23,0-9.49,1.15-12.79,3.45-3.29,2.3-5.88,4.71-7.77,7.22l-.78-9.26h-21.66v73.61h22.6v-36.42c0-5.86,1.65-10.38,4.94-13.57,3.29-3.19,7.61-4.79,12.95-4.79,1.2,0,2.33.07,3.41.18l8.34-19.02Z"></path><path class="cls-1" d="M611.94,98.54v-59.53l-22.6-.16v59.7c0,12.75-10.38,23.13-23.14,23.13v22.6c25.22,0,45.74-20.52,45.74-45.74Z"></path><path class="cls-1" d="M535.32,95.55c2.82,0,5.33-.55,7.53-1.65,2.2-1.1,4.05-2.59,5.57-4.47,1.51-1.88,2.64-4,3.37-6.36.73-2.35,1.1-4.79,1.1-7.3s-.37-4.94-1.1-7.3c-.73-2.35-1.86-4.44-3.37-6.28-1.52-1.83-3.38-3.29-5.57-4.39-2.2-1.1-4.71-1.65-7.53-1.65s-5.36.55-7.61,1.65c-2.25,1.1-4.11,2.56-5.57,4.39-1.47,1.83-2.59,3.93-3.38,6.28-.78,2.35-1.18,4.79-1.18,7.3s.39,4.94,1.18,7.3c.78,2.35,1.91,4.47,3.38,6.36,1.46,1.88,3.32,3.38,5.57,4.47,2.25,1.1,4.79,1.65,7.61,1.65M495.77,75.78c0-5.44.97-10.54,2.9-15.3,1.94-4.76,4.63-8.92,8.09-12.48,3.45-3.55,7.61-6.36,12.48-8.4,4.87-2.04,10.23-3.06,16.09-3.06s11.2,1.02,16.01,3.06c4.81,2.04,8.95,4.84,12.4,8.4,3.45,3.56,6.15,7.72,8.08,12.48,1.93,4.76,2.9,9.86,2.9,15.3s-.97,10.54-2.9,15.3c-1.94,4.76-4.63,8.92-8.08,12.48-3.45,3.56-7.59,6.38-12.4,8.47-4.81,2.09-10.15,3.14-16.01,3.14s-11.22-1.05-16.09-3.14c-4.86-2.09-9.02-4.92-12.48-8.47-3.45-3.55-6.15-7.71-8.09-12.48-1.94-4.76-2.9-9.86-2.9-15.3"></path><path class="cls-1" d="M67.32,7.8h22.45v38.14c2.4-2.82,5.59-5,9.57-6.51,3.97-1.52,8-2.28,12.09-2.28,8.47,0,15.25,2.51,20.33,7.53,5.07,5.02,7.61,12.45,7.61,22.29v45.52h-22.45v-42.06c0-4.29-1.1-7.64-3.29-10.05-2.2-2.4-5.13-3.61-8.79-3.61-2.41,0-4.55.45-6.44,1.33-1.88.89-3.45,2.07-4.71,3.53-1.26,1.47-2.2,3.16-2.82,5.1-.63,1.94-.94,4-.94,6.2v39.55h-22.6V7.8Z"></path><path class="cls-1" d="M194.62,38.88h21.66l.63,8c2.4-2.93,5.57-5.28,9.49-7.06,3.92-1.78,8.03-2.67,12.32-2.67,8.47,0,15.2,2.51,20.17,7.53,4.97,5.02,5.99,12.45,5.99,22.29v45.52h-21.14v-42.38c0-4.08-1.02-7.32-3.06-9.73-2.04-2.41-4.89-3.61-8.55-3.61-2.51,0-4.71.45-6.59,1.34s-3.45,2.07-4.71,3.53c-1.26,1.47-2.2,3.17-2.82,5.1-.63,1.94-.94,4-.94,6.2v39.55h-22.44V38.88Z"></path><polygon class="cls-1" points="280.38 7.8 302.98 7.8 302.98 62.1 325.42 38.88 351.01 38.88 324.64 66.03 354.62 112.49 328.41 112.49 309.57 81.41 302.98 88.16 302.98 112.49 280.38 112.49 280.38 7.8"></polygon><polygon class="cls-1" points="155.22 48.78 155.22 112.49 177.82 112.49 177.82 38.88 155.22 48.78"></polygon><path class="cls-1" d="M53.47,93c-1.41.99-2.91,1.86-4.5,2.61-1.68.78-3.67,1.18-5.96,1.18-3.04,0-5.26-.97-6.67-2.9-1.41-1.93-2.12-4.68-2.12-8.24v-29.04h18.99v-17.74h-18.99v-22.2l-22.6,9.91v12.29H0v17.74h11.61v27.78c0,4.6.47,8.79,1.41,12.55.94,3.77,2.51,6.99,4.71,9.65,2.2,2.67,5.07,4.76,8.63,6.28,3.56,1.51,7.95,2.27,13.18,2.27,7.4,0,14.3-2.22,20.72-6.63l-6.8-15.52Z"></path><polygon class="cls-1" points="196 0 155.22 17.88 155.22 39.29 196 21.4 196 0"></polygon><g><path class="cls-1" d="M22.26,186.04h-11.45v-4.15h27.62v4.15h-11.45v29.24h-4.72v-29.24Z"></path><path class="cls-1" d="M65.77,200.74v14.55h-4.58v-14.02c0-4.96-2.48-7.39-6.82-7.39-4.87,0-8.01,2.91-8.01,8.4v13.02h-4.58v-35.39h4.58v13.69c1.91-2.43,5.06-3.82,8.92-3.82,6.15,0,10.49,3.53,10.49,10.97Z"></path><path class="cls-1" d="M95.96,204.17h-20.51c.57,4.44,4.15,7.39,9.16,7.39,2.96,0,5.44-1,7.3-3.05l2.53,2.96c-2.29,2.67-5.77,4.1-9.97,4.1-8.16,0-13.59-5.39-13.59-12.93s5.39-12.88,12.69-12.88,12.5,5.25,12.5,13.02c0,.38-.05.95-.1,1.38ZM75.45,200.88h16.22c-.48-4.25-3.67-7.25-8.11-7.25s-7.63,2.96-8.11,7.25Z"></path><path class="cls-1" d="M144.71,206.27c0,5.72-4.34,9.01-12.78,9.01h-15.93v-33.39h14.98c7.68,0,11.97,3.24,11.97,8.63,0,3.62-1.86,6.15-4.48,7.44,3.77,1.05,6.25,3.86,6.25,8.3ZM120.76,185.76v10.68h9.78c4.87,0,7.63-1.81,7.63-5.34s-2.77-5.34-7.63-5.34h-9.78ZM139.89,205.89c0-3.86-2.86-5.58-8.16-5.58h-10.97v11.11h10.97c5.29,0,8.16-1.67,8.16-5.53Z"></path><path class="cls-1" d="M175.09,190v25.28h-4.34v-3.82c-1.86,2.62-5.01,4.1-8.59,4.1-6.53,0-10.88-3.58-10.88-11.02v-14.55h4.58v14.02c0,4.96,2.48,7.44,6.82,7.44,4.77,0,7.82-2.96,7.82-8.4v-13.07h4.58Z"></path><path class="cls-1" d="M183.25,182.18c0-1.67,1.34-3,3.1-3s3.1,1.29,3.1,2.91c0,1.72-1.29,3.05-3.1,3.05s-3.1-1.29-3.1-2.96ZM184.06,190h4.58v25.28h-4.58v-25.28Z"></path><path class="cls-1" d="M197.61,179.89h4.58v35.39h-4.58v-35.39Z"></path><path class="cls-1" d="M225.99,213.8c-1.38,1.19-3.48,1.76-5.53,1.76-5.1,0-8.01-2.81-8.01-7.92v-13.88h-4.29v-3.77h4.29v-5.53h4.58v5.53h7.25v3.77h-7.25v13.69c0,2.72,1.43,4.25,3.96,4.25,1.34,0,2.62-.43,3.58-1.19l1.43,3.29Z"></path><path class="cls-1" d="M266.63,206.94h-17.74l-3.67,8.35h-4.91l15.12-33.39h4.72l15.17,33.39h-5.01l-3.67-8.35ZM264.96,203.12l-7.2-16.36-7.2,16.36h14.41Z"></path><path class="cls-1" d="M276.55,212.61l1.91-3.62c2.15,1.53,5.58,2.62,8.87,2.62,4.25,0,6.01-1.29,6.01-3.43,0-5.68-15.98-.76-15.98-10.83,0-4.53,4.05-7.58,10.54-7.58,3.29,0,7.01.86,9.21,2.29l-1.96,3.62c-2.29-1.48-4.82-2-7.3-2-4.01,0-5.96,1.48-5.96,3.48,0,5.96,16.03,1.1,16.03,10.92,0,4.58-4.2,7.49-10.92,7.49-4.2,0-8.35-1.29-10.45-2.96Z"></path><path class="cls-1" d="M300.83,212.61l1.91-3.62c2.15,1.53,5.58,2.62,8.87,2.62,4.25,0,6.01-1.29,6.01-3.43,0-5.68-15.98-.76-15.98-10.83,0-4.53,4.05-7.58,10.54-7.58,3.29,0,7.01.86,9.21,2.29l-1.96,3.62c-2.29-1.48-4.82-2-7.3-2-4.01,0-5.96,1.48-5.96,3.48,0,5.96,16.03,1.1,16.03,10.92,0,4.58-4.2,7.49-10.92,7.49-4.2,0-8.35-1.29-10.45-2.96Z"></path><path class="cls-1" d="M350.91,204.17h-20.51c.57,4.44,4.15,7.39,9.16,7.39,2.96,0,5.44-1,7.3-3.05l2.53,2.96c-2.29,2.67-5.77,4.1-9.97,4.1-8.16,0-13.59-5.39-13.59-12.93s5.39-12.88,12.69-12.88,12.5,5.25,12.5,13.02c0,.38-.05.95-.1,1.38ZM330.4,200.88h16.22c-.48-4.25-3.67-7.25-8.11-7.25s-7.63,2.96-8.11,7.25Z"></path><path class="cls-1" d="M371.8,213.8c-1.38,1.19-3.48,1.76-5.53,1.76-5.1,0-8.01-2.81-8.01-7.92v-13.88h-4.29v-3.77h4.29v-5.53h4.58v5.53h7.25v3.77h-7.25v13.69c0,2.72,1.43,4.25,3.96,4.25,1.34,0,2.62-.43,3.58-1.19l1.43,3.29Z"></path><path class="cls-1" d="M391.17,181.89h4.77v29.24h18.08v4.15h-22.85v-33.39Z"></path><path class="cls-1" d="M418.12,182.18c0-1.67,1.34-3,3.1-3s3.1,1.29,3.1,2.91c0,1.72-1.29,3.05-3.1,3.05s-3.1-1.29-3.1-2.96ZM418.93,190h4.58v25.28h-4.58v-25.28Z"></path><path class="cls-1" d="M437.63,187.81v2.19h7.35v3.77h-7.25v21.51h-4.58v-21.51h-4.29v-3.77h4.29v-2.24c0-4.91,2.96-8.16,8.35-8.16,1.96,0,3.86.48,5.15,1.48l-1.38,3.48c-.95-.72-2.19-1.19-3.53-1.19-2.72,0-4.1,1.53-4.1,4.44Z"></path><path class="cls-1" d="M471.92,204.17h-20.51c.57,4.44,4.15,7.39,9.16,7.39,2.96,0,5.44-1,7.3-3.05l2.53,2.96c-2.29,2.67-5.77,4.1-9.97,4.1-8.16,0-13.59-5.39-13.59-12.93s5.39-12.88,12.69-12.88,12.5,5.25,12.5,13.02c0,.38-.05.95-.1,1.38ZM451.41,200.88h16.22c-.48-4.25-3.67-7.25-8.11-7.25s-7.63,2.96-8.11,7.25Z"></path><path class="cls-1" d="M476.27,202.64c0-7.54,5.58-12.88,13.36-12.88,4.53,0,8.3,1.86,10.3,5.39l-3.48,2.24c-1.62-2.48-4.1-3.63-6.87-3.63-4.96,0-8.68,3.48-8.68,8.87s3.72,8.92,8.68,8.92c2.77,0,5.25-1.14,6.87-3.62l3.48,2.19c-2,3.53-5.77,5.44-10.3,5.44-7.78,0-13.36-5.39-13.36-12.93Z"></path><path class="cls-1" d="M528.12,190l-12.26,27.81c-2.24,5.34-5.15,7.01-9.02,7.01-2.43,0-4.91-.81-6.49-2.34l1.96-3.43c1.24,1.19,2.81,1.86,4.53,1.86,2.19,0,3.58-1,4.82-3.91l.81-1.76-11.16-25.23h4.77l8.82,20.22,8.73-20.22h4.48Z"></path><path class="cls-1" d="M529.59,202.64c0-7.54,5.58-12.88,13.36-12.88,4.53,0,8.3,1.86,10.3,5.39l-3.48,2.24c-1.62-2.48-4.1-3.63-6.87-3.63-4.96,0-8.68,3.48-8.68,8.87s3.72,8.92,8.68,8.92c2.77,0,5.25-1.14,6.87-3.62l3.48,2.19c-2,3.53-5.77,5.44-10.3,5.44-7.78,0-13.36-5.39-13.36-12.93Z"></path><path class="cls-1" d="M559.07,179.89h4.58v35.39h-4.58v-35.39Z"></path><path class="cls-1" d="M595.37,204.17h-20.51c.57,4.44,4.15,7.39,9.16,7.39,2.96,0,5.44-1,7.3-3.05l2.53,2.96c-2.29,2.67-5.77,4.1-9.97,4.1-8.16,0-13.59-5.39-13.59-12.93s5.39-12.88,12.69-12.88,12.5,5.25,12.5,13.02c0,.38-.05.95-.1,1.38ZM574.86,200.88h16.22c-.48-4.25-3.67-7.25-8.11-7.25s-7.63,2.96-8.11,7.25Z"></path><path class="cls-1" d="M642.6,193.53c0,7.25-5.25,11.64-13.93,11.64h-8.25v10.11h-4.77v-33.39h13.02c8.68,0,13.93,4.39,13.93,11.64ZM637.83,193.53c0-4.77-3.2-7.49-9.3-7.49h-8.11v14.98h8.11c6.11,0,9.3-2.72,9.3-7.49Z"></path><path class="cls-1" d="M648.22,179.89h4.58v35.39h-4.58v-35.39Z"></path><path class="cls-1" d="M681.66,200.02v15.26h-4.34v-3.34c-1.53,2.29-4.34,3.62-8.3,3.62-5.72,0-9.35-3.05-9.35-7.44,0-4.05,2.62-7.39,10.16-7.39h7.25v-.91c0-3.86-2.24-6.11-6.77-6.11-3,0-6.06,1.05-8.01,2.72l-1.91-3.43c2.62-2.1,6.39-3.24,10.45-3.24,6.92,0,10.83,3.34,10.83,10.25ZM677.08,207.56v-3.53h-7.06c-4.53,0-5.82,1.76-5.82,3.91,0,2.53,2.1,4.1,5.58,4.1s6.15-1.57,7.3-4.48Z"></path><path class="cls-1" d="M704.6,213.8c-1.38,1.19-3.48,1.76-5.53,1.76-5.1,0-8.01-2.81-8.01-7.92v-13.88h-4.29v-3.77h4.29v-5.53h4.58v5.53h7.25v3.77h-7.25v13.69c0,2.72,1.43,4.25,3.96,4.25,1.33,0,2.62-.43,3.58-1.19l1.43,3.29Z"></path><path class="cls-1" d="M715.53,187.81v2.19h7.35v3.77h-7.25v21.51h-4.58v-21.51h-4.29v-3.77h4.29v-2.24c0-4.91,2.96-8.16,8.35-8.16,1.96,0,3.86.48,5.15,1.48l-1.38,3.48c-.95-.72-2.19-1.19-3.53-1.19-2.72,0-4.1,1.53-4.1,4.44Z"></path><path class="cls-1" d="M724.73,202.64c0-7.54,5.58-12.88,13.17-12.88s13.12,5.34,13.12,12.88-5.53,12.93-13.12,12.93-13.17-5.39-13.17-12.93ZM746.39,202.64c0-5.39-3.63-8.87-8.49-8.87s-8.54,3.48-8.54,8.87,3.67,8.92,8.54,8.92,8.49-3.53,8.49-8.92Z"></path><path class="cls-1" d="M771.19,189.76v4.44c-.38-.05-.71-.05-1.05-.05-4.91,0-7.97,3-7.97,8.54v12.59h-4.58v-25.28h4.39v4.25c1.62-2.96,4.77-4.48,9.21-4.48Z"></path><path class="cls-1" d="M819.03,200.74v14.55h-4.58v-14.02c0-4.96-2.38-7.39-6.53-7.39-4.58,0-7.58,2.91-7.58,8.4v13.02h-4.58v-14.02c0-4.96-2.39-7.39-6.54-7.39-4.58,0-7.58,2.91-7.58,8.4v13.02h-4.58v-25.28h4.39v3.77c1.81-2.58,4.91-4.01,8.73-4.01s7.11,1.53,8.78,4.67c1.91-2.86,5.44-4.67,9.73-4.67,6.15,0,10.35,3.53,10.35,10.97Z"></path><path class="cls-1" d="M825.57,212.28c0-1.91,1.48-3.24,3.24-3.24s3.15,1.34,3.15,3.24-1.43,3.29-3.15,3.29-3.24-1.38-3.24-3.29Z"></path></g></svg>
