<svg id="icons" xmlns="http://www.w3.org/2000/svg" viewBox="0 0 100 100"><defs><style>.cls-1{fill:#243273;}</style></defs><title>sybase-database</title><g id="sybase-database"><path class="cls-1" d="M69.7,31.756H61.6v7.593A8.676,8.676,0,0,0,69.7,31.756Z"/><path class="cls-1" d="M55.8,41.541h3.077a5.264,5.264,0,0,1-3.077-2.6Z"/><path class="cls-1" d="M57.961,31.756H55.8v2.4A7.053,7.053,0,0,1,57.961,31.756Z"/><path class="cls-1" d="M30.7,42.5a39.49,39.49,0,0,0,10,25.889c7.353,8.23,18.061,13.133,31,14.21V42.5Z"/><path class="cls-1" d="M69.784,30.425c0-7.129-6-12.79-13.986-13.231V30.8H69.774C69.778,30.674,69.784,30.552,69.784,30.425Z"/><path class="cls-1" d="M38.794,70.1A41.975,41.975,0,0,1,28.3,45.679V85H69.9C57.005,83.606,46.286,78.481,38.794,70.1Z"/><path class="cls-1" d="M71.7,26.09V15H58.78C65.126,16.27,70.015,20.52,71.7,26.09Z"/><path class="cls-1" d="M36.344,21.939A26.571,26.571,0,0,1,50.108,15H28.3V38.8A26.45,26.45,0,0,1,36.344,21.939Z"/><path class="cls-1" d="M38.111,23.79A24.319,24.319,0,0,0,30.7,41.541H54.838V17.167A23.94,23.94,0,0,0,38.111,23.79Z"/><path class="cls-1" d="M63.985,41.541H71.7V34.455A11.122,11.122,0,0,1,63.985,41.541Z"/><path class="cls-1" d="M60.637,33.145c-2.1.955-2.868,2.33-2.868,3.344a2.877,2.877,0,0,0,2.868,2.836Z"/></g></svg>